#!OML:ASF H:\Terrain\Walking\May29\JustinRory\Justin.ASF
:FULLY-SPECIFIED
:DEGREES
130
root 8.44995 16.0088 -5.46822 -8.00208 -58.5148 3.28034
lowerback 15.5201 3.37784 -2.8909
upperback 4.64286 3.92381 1.11799
thorax -4.02353 1.8831 2.07307
lowerneck -14.1022 8.31823 -3.50335
upperneck 19.5635 12.8616 -3.03361
head 8.40507 5.44774 0.990771
rclavicle -6.85807e-015 1.55052e-014
rhumerus -21.2585 4.05406 -85.7774
rradius 113.895
rwrist -3.69347
rhand -42.5148 34.7968
rfingers 7.12502
rthumb -15.3911 5.3897
lclavicle -6.85807e-015 1.55052e-014
lhumerus 4.71154 -54.0606 88.9518
lradius 95.7986
lwrist -9.41469
lhand -17.7899 39.794
lfingers 7.12502
lthumb 8.4731 69.6041
rfemur -22.8589 -19.5465 25.4606
rtibia 78.6304
rfoot -4.75915 18.723
rtoes -5.92763
lfemur -34.6933 -4.14984 -7.96025
ltibia 44.3546
lfoot -3.22546 -8.24644
ltoes -15.7621
131
root 8.2945 15.9797 -5.43483 -10.7624 -58.7469 6.0437
lowerback 15.7619 3.62948 -4.16702
upperback 4.82459 4.02128 0.728053
thorax -4.02064 1.92716 2.35388
lowerneck -14.5478 8.42616 -3.7188
upperneck 20.0209 13.0135 -2.54815
head 8.58738 5.52456 1.23118
rclavicle 4.09496e-014 0
rhumerus -21.1942 3.29914 -85.4315
rradius 113.93
rwrist -3.94458
rhand -42.2109 34.0713
rfingers 7.12502
rthumb -15.0983 4.64199
lclavicle 4.09496e-014 0
lhumerus 4.20522 -53.8953 88.8714
lradius 96.1501
lwrist -9.28354
lhand -17.5237 39.5897
lfingers 7.12502
lthumb 8.72995 69.3891
rfemur -23.4615 -19.6349 22.5039
rtibia 80.2457
rfoot -6.72214 17.4501
rtoes -7.55966
lfemur -33.9662 -3.74747 -9.38833
ltibia 45.1902
lfoot -4.27116 -8.09248
ltoes -14.3954
132
root 8.1416 15.9623 -5.4092 -12.7405 -59.0697 8.14549
lowerback 15.8483 3.92441 -5.31403
upperback 4.95101 4.21374 0.579709
thorax -4.01159 2.01799 2.80154
lowerneck -14.5988 8.58036 -3.78913
upperneck 19.9833 13.2375 -2.51876
head 8.57522 5.62971 1.27712
rclavicle -2.01766e-014 8.34896e-015
rhumerus -21.0552 2.59259 -84.8926
rradius 114.003
rwrist -4.25815
rhand -42.2262 34.044
rfingers 7.12502
rthumb -15.1131 4.61581
lclavicle -2.01766e-014 8.34896e-015
lhumerus 3.66633 -53.6268 88.9844
lradius 96.3683
lwrist -8.97144
lhand -17.9303 38.6415
lfingers 7.12502
lthumb 8.33757 68.4569
rfemur -24.2241 -19.4268 20.1019
rtibia 81.4117
rfoot -8.69164 14.9141
rtoes -8.20719
lfemur -33.3371 -3.17592 -10.3735
ltibia 45.733
lfoot -5.04171 -8.02262
ltoes -14.0944
133
root 8.00719 15.9559 -5.38066 -12.7963 -59.7242 8.05895
lowerback 16.026 4.02589 -5.42565
upperback 5.01905 4.33315 0.923591
thorax -4.07897 2.07456 3.19575
lowerneck -14.2619 8.84299 -3.75229
upperneck 19.5073 13.6638 -3.10494
head 8.40215 5.80095 1.0986
rclavicle -7.86193e-014 4.01545e-014
rhumerus -20.9039 2.47812 -84.1968
rradius 113.967
rwrist -4.69424
rhand -42.204 34.5225
rfingers 7.12502
rthumb -15.0917 5.09266
lclavicle -7.86193e-014 4.01545e-014
lhumerus 2.97495 -52.9535 89.1952
lradius 96.5959
lwrist -8.60688
lhand -18.7244 37.3131
lfingers 7.12502
lthumb 7.57121 67.1576
rfemur -24.985 -18.9583 19.1068
rtibia 81.9729
rfoot -10.4169 11.9951
rtoes -7.91628
lfemur -32.711 -2.19325 -10.0832
ltibia 46.0686
lfoot -5.89463 -8.35599
ltoes -16.1651
134
root 7.8729 15.973 -5.35087 -12.2986 -60.3854 7.25776
lowerback 16.1959 4.0257 -4.96366
upperback 5.11756 4.41435 1.36017
thorax -4.07548 2.10915 3.37564
lowerneck -14.1005 9.0714 -3.86919
upperneck 19.299 14.1125 -3.73134
head 8.34823 5.94989 0.950868
rclavicle 1.50082e-014 3.18055e-015
rhumerus -20.8642 2.51343 -83.4057
rradius 113.791
rwrist -5.42767
rhand -42.0905 35.4636
rfingers 7.12502
rthumb -14.9823 6.02554
lclavicle 1.50082e-014 3.18055e-015
lhumerus 2.04998 -52.1378 89.6555
lradius 96.6931
lwrist -8.81825
lhand -19.0991 36.5857
lfingers 7.12502
lthumb 7.20945 66.4429
rfemur -25.4179 -18.544 18.4205
rtibia 81.971
rfoot -12.0112 9.42359
rtoes -7.68337
lfemur -31.855 -1.40181 -9.37643
ltibia 46.2102
lfoot -6.75765 -8.48982
ltoes -17.9849
135
root 7.7288 16.0027 -5.33062 -11.9216 -60.9268 6.79701
lowerback 16.1746 4.0081 -4.28571
upperback 5.1905 4.4977 1.39327
thorax -3.94969 2.14462 3.01588
lowerneck -14.0674 9.28795 -3.92742
upperneck 19.1806 14.4406 -3.86672
head 8.31014 6.0935 0.946539
rclavicle -1.13307e-013 2.06736e-014
rhumerus -20.7548 2.05448 -83.061
rradius 113.588
rwrist -6.41091
rhand -42.5988 38.345
rfingers 7.12502
rthumb -15.4719 8.94419
lclavicle -1.13307e-013 2.06736e-014
lhumerus 1.04179 -51.6797 89.7955
lradius 96.7037
lwrist -9.41585
lhand -19.2616 36.1296
lfingers 7.12502
lthumb 7.0526 65.9921
rfemur -25.8746 -18.02 17.5569
rtibia 81.5864
rfoot -13.3602 7.02527
rtoes -6.05573
lfemur -31.0742 -0.89876 -8.81415
ltibia 46.1347
lfoot -7.44068 -8.41531
ltoes -18.7516
136
root 7.58526 16.0312 -5.31203 -11.7377 -61.0977 6.74684
lowerback 16.0036 3.8563 -3.7246
upperback 5.29425 4.38018 1.18573
thorax -3.6834 2.08062 2.51901
lowerneck -14.1183 9.57018 -3.72706
upperneck 18.8611 14.788 -3.98175
head 8.2355 6.27749 0.91172
rclavicle 5.1684e-014 1.19271e-014
rhumerus -20.3252 1.40079 -83.1087
rradius 113.259
rwrist -7.14603
rhand -42.6457 38.8899
rfingers 7.12502
rthumb -15.5171 9.49255
lclavicle 5.1684e-014 1.19271e-014
lhumerus 0.172249 -51.1259 89.5332
lradius 96.6097
lwrist -10.0638
lhand -19.3757 35.2853
lfingers 7.12502
lthumb 6.94247 65.1514
rfemur -26.4032 -17.6764 16.4014
rtibia 80.8606
rfoot -14.5874 5.07177
rtoes -5.02733
lfemur -30.5028 -0.681829 -8.57942
ltibia 45.8526
lfoot -7.93138 -8.40694
ltoes -19.2053
137
root 7.43272 16.071 -5.3058 -12.4807 -60.8714 7.824
lowerback 15.695 3.76967 -4.44295
upperback 5.40285 4.17151 1.2021
thorax -3.43691 1.97001 3.00081
lowerneck -14.392 9.81846 -3.43884
upperneck 18.8575 15.1833 -4.43033
head 8.34657 6.42813 0.789279
rclavicle -6.10269e-014 1.03368e-014
rhumerus -20.0002 1.1406 -82.7265
rradius 112.803
rwrist -7.56643
rhand -40.8384 32.904
rfingers 7.12502
rthumb -13.7759 3.3801
lclavicle -6.10269e-014 1.03368e-014
lhumerus -0.69169 -50.3368 89.5459
lradius 96.2921
lwrist -10.5723
lhand -19.8513 34.4748
lfingers 7.12502
lthumb 6.4834 64.3555
rfemur -26.8288 -17.7053 14.5282
rtibia 79.8123
rfoot -15.6376 3.27947
rtoes -5.14619
lfemur -29.9275 -1.00432 -9.00826
ltibia 45.4126
lfoot -8.26578 -8.08448
ltoes -18.8893
138
root 7.28258 16.115 -5.30903 -12.9782 -60.7024 8.35783
lowerback 15.8849 3.63766 -4.55484
upperback 5.34895 3.95977 0.975761
thorax -3.56754 1.86871 2.85596
lowerneck -14.3158 10.0149 -2.72898
upperneck 18.8169 15.3437 -4.67607
head 8.39557 6.53073 0.623962
rclavicle -1.41137e-014 -5.56597e-015
rhumerus -20.3088 0.846653 -82.7825
rradius 112.515
rwrist -8.12806
rhand -42.3968 39.0136
rfingers 7.12502
rthumb -15.2774 9.5978
lclavicle -1.41137e-014 -5.56597e-015
lhumerus -2.14204 -49.9158 89.3849
lradius 96.0368
lwrist -10.9996
lhand -20.8176 33.8984
lfingers 7.12502
lthumb 5.55048 63.8057
rfemur -26.8399 -17.592 12.9464
rtibia 78.4156
rfoot -16.5892 0.91483
rtoes -5.23861
lfemur -29.0599 -1.59168 -9.09707
ltibia 44.8774
lfoot -8.42049 -7.60026
ltoes -16.8693
139
root 7.15169 16.1469 -5.30374 -12.6705 -60.556 7.71477
lowerback 16.2123 3.41772 -3.74068
upperback 5.54099 3.76896 0.901114
thorax -3.46904 1.7676 2.34808
lowerneck -14.2707 10.1503 -2.3485
upperneck 18.4527 15.4777 -4.97816
head 8.32246 6.61032 0.476872
rclavicle 7.05686e-015 6.36111e-015
rhumerus -20.2566 0.561427 -82.6567
rradius 112.266
rwrist -9.23568
rhand -42.0618 40.2397
rfingers 7.12502
rthumb -14.9547 10.7996
lclavicle 7.05686e-015 6.36111e-015
lhumerus -3.29226 -49.1999 89.28
lradius 95.7368
lwrist -11.6818
lhand -21.465 33.1952
lfingers 7.12502
lthumb 4.92533 63.118
rfemur -26.4922 -17.0284 11.9983
rtibia 76.7432
rfoot -17.5558 -1.95386
rtoes -5.18372
lfemur -28.0457 -2.30097 -8.59021
ltibia 44.2526
lfoot -8.60715 -7.22158
ltoes -16.0836
